<svg width="1363" height="301" viewBox="0 0 1363 301" fill="none" xmlns="http://www.w3.org/2000/svg">
<rect width="1363" height="301" rx="15" fill="#F0F0F0"/>
<path d="M0 15C0 6.71573 6.71573 0 15 0H37V301H15C6.71573 301 0 294.284 0 286V15Z" fill="#BD4543"/>
<path d="M120.816 136.749V144H101.05V136.749H120.816ZM104.407 104.898V144H94.981V104.898H104.407ZM138.433 144.537C136.07 144.537 133.957 144.17 132.095 143.436C130.233 142.684 128.658 141.655 127.369 140.348C126.097 139.041 125.122 137.537 124.441 135.836C123.779 134.135 123.448 132.336 123.448 130.438V129.417C123.448 127.287 123.743 125.318 124.334 123.509C124.925 121.683 125.802 120.09 126.966 118.729C128.13 117.368 129.589 116.312 131.343 115.56C133.098 114.79 135.139 114.405 137.466 114.405C139.525 114.405 141.369 114.736 142.999 115.399C144.628 116.061 146.006 117.01 147.134 118.246C148.28 119.481 149.148 120.976 149.739 122.73C150.348 124.485 150.652 126.454 150.652 128.639V132.318H126.912V126.651H141.817V125.953C141.835 124.986 141.665 124.163 141.307 123.482C140.966 122.802 140.465 122.283 139.803 121.925C139.14 121.567 138.335 121.388 137.386 121.388C136.401 121.388 135.586 121.603 134.942 122.032C134.315 122.462 133.823 123.053 133.465 123.805C133.125 124.539 132.883 125.389 132.74 126.356C132.597 127.323 132.525 128.343 132.525 129.417V130.438C132.525 131.512 132.668 132.488 132.955 133.365C133.259 134.243 133.689 134.994 134.244 135.621C134.817 136.23 135.497 136.704 136.285 137.044C137.09 137.385 138.003 137.555 139.024 137.555C140.259 137.555 141.477 137.322 142.676 136.856C143.876 136.391 144.905 135.621 145.765 134.547L149.874 139.435C149.283 140.276 148.441 141.091 147.349 141.878C146.275 142.666 144.986 143.311 143.482 143.812C141.978 144.295 140.295 144.537 138.433 144.537ZM154.412 102.75H163.462V136.856L162.522 144H154.412V102.75ZM181.294 129.149V129.713C181.294 131.915 181.071 133.92 180.623 135.729C180.175 137.537 179.486 139.103 178.555 140.428C177.624 141.735 176.451 142.747 175.037 143.463C173.623 144.179 171.949 144.537 170.015 144.537C168.261 144.537 166.757 144.161 165.503 143.409C164.25 142.639 163.203 141.583 162.361 140.24C161.52 138.88 160.84 137.313 160.32 135.541C159.801 133.75 159.389 131.834 159.085 129.793V129.122C159.389 127.099 159.801 125.201 160.32 123.429C160.84 121.638 161.52 120.072 162.361 118.729C163.203 117.368 164.241 116.312 165.477 115.56C166.73 114.79 168.225 114.405 169.961 114.405C171.913 114.405 173.596 114.772 175.01 115.506C176.443 116.24 177.624 117.27 178.555 118.595C179.486 119.92 180.175 121.477 180.623 123.268C181.071 125.058 181.294 127.018 181.294 129.149ZM172.244 129.713V129.149C172.244 128.093 172.181 127.099 172.056 126.168C171.931 125.237 171.707 124.413 171.385 123.697C171.062 122.981 170.606 122.417 170.015 122.005C169.424 121.594 168.654 121.388 167.706 121.388C166.739 121.388 165.924 121.549 165.262 121.871C164.617 122.193 164.098 122.659 163.704 123.268C163.328 123.858 163.06 124.592 162.898 125.47C162.737 126.329 162.666 127.305 162.684 128.397V130.519C162.648 132.005 162.782 133.276 163.086 134.332C163.391 135.388 163.919 136.194 164.671 136.749C165.423 137.304 166.452 137.582 167.759 137.582C168.726 137.582 169.505 137.394 170.096 137.018C170.704 136.642 171.161 136.104 171.465 135.406C171.77 134.708 171.976 133.875 172.083 132.909C172.19 131.942 172.244 130.877 172.244 129.713ZM204.686 104.898V144H195.259V104.898H204.686ZM216.448 104.898V112.176H183.765V104.898H216.448ZM230.547 136.695V124.718C230.547 123.894 230.431 123.187 230.198 122.596C229.965 122.005 229.598 121.549 229.097 121.227C228.596 120.886 227.924 120.716 227.083 120.716C226.403 120.716 225.821 120.833 225.337 121.065C224.854 121.298 224.487 121.647 224.236 122.113C223.986 122.578 223.86 123.169 223.86 123.885H214.81C214.81 122.542 215.105 121.298 215.696 120.152C216.305 118.989 217.164 117.977 218.274 117.118C219.402 116.258 220.745 115.596 222.303 115.13C223.878 114.647 225.633 114.405 227.566 114.405C229.876 114.405 231.935 114.79 233.743 115.56C235.569 116.33 237.011 117.485 238.067 119.024C239.123 120.546 239.651 122.462 239.651 124.771V136.668C239.651 138.566 239.759 140.007 239.974 140.992C240.188 141.959 240.493 142.809 240.887 143.543V144H231.81C231.38 143.105 231.058 142.013 230.843 140.724C230.646 139.417 230.547 138.074 230.547 136.695ZM231.648 126.249L231.702 131.083H227.701C226.859 131.083 226.143 131.199 225.552 131.432C224.979 131.664 224.514 131.987 224.156 132.398C223.816 132.792 223.565 133.24 223.404 133.741C223.261 134.243 223.189 134.771 223.189 135.326C223.189 135.863 223.314 136.346 223.565 136.776C223.833 137.188 224.192 137.51 224.639 137.743C225.087 137.975 225.588 138.092 226.143 138.092C227.146 138.092 227.996 137.904 228.694 137.528C229.41 137.134 229.957 136.66 230.333 136.104C230.708 135.549 230.896 135.03 230.896 134.547L232.884 138.253C232.526 138.969 232.114 139.694 231.648 140.428C231.201 141.162 230.637 141.843 229.957 142.469C229.294 143.078 228.479 143.579 227.513 143.973C226.546 144.349 225.373 144.537 223.995 144.537C222.204 144.537 220.557 144.17 219.053 143.436C217.567 142.702 216.377 141.681 215.481 140.375C214.586 139.05 214.139 137.528 214.139 135.809C214.139 134.305 214.407 132.962 214.944 131.781C215.499 130.599 216.332 129.597 217.442 128.773C218.552 127.949 219.966 127.323 221.685 126.893C223.404 126.463 225.427 126.249 227.754 126.249H231.648ZM254.234 102.75V144H245.157V102.75H254.234ZM268.951 102.723V144H259.9V102.723H268.951ZM287.535 114.942L274.913 129.74L268.306 136.346L264.358 130.599L269.864 123.429L276.685 114.942H287.535ZM277.84 144L270.079 130.76L276.766 126.007L288.206 144H277.84Z" fill="black"/>
<path d="M99.3486 55.1172V80H94.2217V55.1172H99.3486ZM109.261 65.7471V69.7461H97.9473V65.7471H109.261ZM110.457 55.1172V59.1333H97.9473V55.1172H110.457ZM122.522 75.8301V67.5928C122.522 67.0003 122.426 66.4933 122.232 66.0718C122.038 65.6388 121.736 65.3027 121.326 65.0635C120.927 64.8242 120.409 64.7046 119.771 64.7046C119.224 64.7046 118.751 64.8014 118.353 64.9951C117.954 65.1774 117.646 65.4451 117.43 65.7983C117.213 66.1401 117.105 66.5446 117.105 67.0117H112.183C112.183 66.2256 112.365 65.4793 112.73 64.7729C113.095 64.0666 113.624 63.4456 114.319 62.9102C115.014 62.3633 115.84 61.936 116.797 61.6284C117.766 61.3208 118.848 61.167 120.044 61.167C121.48 61.167 122.756 61.4062 123.873 61.8848C124.989 62.3633 125.866 63.0811 126.504 64.0381C127.154 64.9951 127.479 66.1914 127.479 67.627V75.5396C127.479 76.5535 127.541 77.3853 127.667 78.0347C127.792 78.6727 127.974 79.231 128.213 79.7095V80H123.24C123.001 79.4987 122.819 78.8721 122.693 78.1201C122.579 77.3568 122.522 76.5934 122.522 75.8301ZM123.172 68.7378L123.206 71.5234H120.455C119.805 71.5234 119.241 71.5975 118.763 71.7456C118.284 71.8937 117.891 72.1045 117.583 72.3779C117.276 72.64 117.048 72.9476 116.9 73.3008C116.763 73.654 116.695 74.0413 116.695 74.4629C116.695 74.8844 116.792 75.2661 116.985 75.6079C117.179 75.9383 117.458 76.2004 117.823 76.394C118.187 76.5763 118.615 76.6675 119.104 76.6675C119.845 76.6675 120.489 76.5194 121.036 76.2231C121.583 75.9269 122.004 75.5623 122.3 75.1294C122.608 74.6965 122.767 74.2863 122.779 73.8989L124.078 75.9839C123.895 76.451 123.645 76.9352 123.326 77.4365C123.018 77.9378 122.625 78.4106 122.146 78.855C121.668 79.2879 121.093 79.6468 120.42 79.9316C119.748 80.2051 118.951 80.3418 118.028 80.3418C116.854 80.3418 115.789 80.1082 114.832 79.6411C113.886 79.1626 113.134 78.5075 112.576 77.6758C112.029 76.8327 111.756 75.8757 111.756 74.8047C111.756 73.8363 111.938 72.9761 112.303 72.2241C112.667 71.4722 113.203 70.8398 113.909 70.3271C114.627 69.8031 115.521 69.41 116.592 69.1479C117.663 68.8745 118.905 68.7378 120.318 68.7378H123.172ZM140.33 61.5088V64.9951H129.563V61.5088H140.33ZM132.229 56.9458H137.151V74.4287C137.151 74.9642 137.22 75.3743 137.356 75.6592C137.505 75.944 137.721 76.1434 138.006 76.2573C138.291 76.3599 138.65 76.4111 139.083 76.4111C139.39 76.4111 139.664 76.3997 139.903 76.377C140.153 76.3428 140.364 76.3086 140.535 76.2744L140.552 79.8975C140.131 80.0342 139.675 80.1424 139.185 80.2222C138.695 80.3019 138.154 80.3418 137.562 80.3418C136.479 80.3418 135.534 80.1652 134.725 79.812C133.927 79.4474 133.312 78.8664 132.879 78.0688C132.446 77.2713 132.229 76.2231 132.229 74.9243V56.9458ZM148.328 61.5088V80H143.389V61.5088H148.328ZM143.082 56.6895C143.082 55.9717 143.332 55.3792 143.833 54.9121C144.335 54.445 145.007 54.2114 145.85 54.2114C146.682 54.2114 147.348 54.445 147.85 54.9121C148.362 55.3792 148.619 55.9717 148.619 56.6895C148.619 57.4072 148.362 57.9997 147.85 58.4668C147.348 58.9339 146.682 59.1675 145.85 59.1675C145.007 59.1675 144.335 58.9339 143.833 58.4668C143.332 57.9997 143.082 57.4072 143.082 56.6895ZM157.317 65.3369V80H152.378V61.5088H157.01L157.317 65.3369ZM156.634 70.105H155.267C155.267 68.8175 155.42 67.6326 155.728 66.5503C156.047 65.4565 156.508 64.5109 157.112 63.7134C157.728 62.9045 158.485 62.2778 159.385 61.8335C160.285 61.3892 161.328 61.167 162.513 61.167C163.333 61.167 164.085 61.2923 164.769 61.543C165.452 61.7822 166.039 62.1639 166.529 62.688C167.03 63.2007 167.417 63.8729 167.691 64.7046C167.964 65.5249 168.101 66.5104 168.101 67.6611V80H163.179V68.208C163.179 67.3649 163.065 66.7155 162.837 66.2598C162.61 65.804 162.285 65.485 161.863 65.3027C161.453 65.1204 160.958 65.0293 160.376 65.0293C159.738 65.0293 159.18 65.1603 158.702 65.4224C158.235 65.6844 157.847 66.049 157.54 66.5161C157.232 66.9718 157.004 67.5073 156.856 68.1226C156.708 68.7378 156.634 69.3986 156.634 70.105ZM167.64 69.541L165.879 69.7632C165.879 68.5555 166.028 67.4333 166.324 66.3965C166.631 65.3597 167.081 64.4482 167.674 63.6621C168.278 62.876 169.024 62.2664 169.913 61.8335C170.801 61.3892 171.827 61.167 172.989 61.167C173.877 61.167 174.686 61.298 175.416 61.5601C176.145 61.8107 176.766 62.2152 177.278 62.7734C177.802 63.3203 178.201 64.0381 178.475 64.9268C178.759 65.8154 178.902 66.9035 178.902 68.1909V80H173.963V68.1909C173.963 67.3364 173.849 66.687 173.621 66.2427C173.405 65.7869 173.086 65.4736 172.664 65.3027C172.254 65.1204 171.764 65.0293 171.194 65.0293C170.602 65.0293 170.083 65.1489 169.639 65.3882C169.195 65.616 168.825 65.9351 168.528 66.3452C168.232 66.7554 168.01 67.2339 167.862 67.7808C167.714 68.3162 167.64 68.903 167.64 69.541ZM192.693 75.8301V67.5928C192.693 67.0003 192.597 66.4933 192.403 66.0718C192.209 65.6388 191.907 65.3027 191.497 65.0635C191.098 64.8242 190.58 64.7046 189.942 64.7046C189.395 64.7046 188.922 64.8014 188.523 64.9951C188.125 65.1774 187.817 65.4451 187.601 65.7983C187.384 66.1401 187.276 66.5446 187.276 67.0117H182.354C182.354 66.2256 182.536 65.4793 182.901 64.7729C183.265 64.0666 183.795 63.4456 184.49 62.9102C185.185 62.3633 186.011 61.936 186.968 61.6284C187.937 61.3208 189.019 61.167 190.215 61.167C191.651 61.167 192.927 61.4062 194.043 61.8848C195.16 62.3633 196.037 63.0811 196.675 64.0381C197.325 64.9951 197.649 66.1914 197.649 67.627V75.5396C197.649 76.5535 197.712 77.3853 197.837 78.0347C197.963 78.6727 198.145 79.231 198.384 79.7095V80H193.411C193.172 79.4987 192.99 78.8721 192.864 78.1201C192.75 77.3568 192.693 76.5934 192.693 75.8301ZM193.343 68.7378L193.377 71.5234H190.625C189.976 71.5234 189.412 71.5975 188.934 71.7456C188.455 71.8937 188.062 72.1045 187.754 72.3779C187.447 72.64 187.219 72.9476 187.071 73.3008C186.934 73.654 186.866 74.0413 186.866 74.4629C186.866 74.8844 186.963 75.2661 187.156 75.6079C187.35 75.9383 187.629 76.2004 187.994 76.394C188.358 76.5763 188.785 76.6675 189.275 76.6675C190.016 76.6675 190.66 76.5194 191.207 76.2231C191.753 75.9269 192.175 75.5623 192.471 75.1294C192.779 74.6965 192.938 74.2863 192.95 73.8989L194.249 75.9839C194.066 76.451 193.816 76.9352 193.497 77.4365C193.189 77.9378 192.796 78.4106 192.317 78.855C191.839 79.2879 191.264 79.6468 190.591 79.9316C189.919 80.2051 189.122 80.3418 188.199 80.3418C187.025 80.3418 185.96 80.1082 185.003 79.6411C184.057 79.1626 183.305 78.5075 182.747 77.6758C182.2 76.8327 181.927 75.8757 181.927 74.8047C181.927 73.8363 182.109 72.9761 182.474 72.2241C182.838 71.4722 183.374 70.8398 184.08 70.3271C184.798 69.8031 185.692 69.41 186.763 69.1479C187.834 68.8745 189.076 68.7378 190.489 68.7378H193.343ZM215.594 55.1172V80H210.467V55.1172H215.594ZM230.496 55.1172L220.635 67.4048L214.944 73.5229L214.021 68.6694L217.867 63.4058L224.207 55.1172H230.496ZM224.668 80L217.337 68.4985L221.131 65.3198L230.735 80H224.668ZM242.391 75.8301V67.5928C242.391 67.0003 242.294 66.4933 242.1 66.0718C241.906 65.6388 241.604 65.3027 241.194 65.0635C240.796 64.8242 240.277 64.7046 239.639 64.7046C239.092 64.7046 238.619 64.8014 238.221 64.9951C237.822 65.1774 237.514 65.4451 237.298 65.7983C237.081 66.1401 236.973 66.5446 236.973 67.0117H232.051C232.051 66.2256 232.234 65.4793 232.598 64.7729C232.963 64.0666 233.493 63.4456 234.188 62.9102C234.882 62.3633 235.708 61.936 236.666 61.6284C237.634 61.3208 238.716 61.167 239.913 61.167C241.348 61.167 242.624 61.4062 243.741 61.8848C244.857 62.3633 245.735 63.0811 246.373 64.0381C247.022 64.9951 247.347 66.1914 247.347 67.627V75.5396C247.347 76.5535 247.409 77.3853 247.535 78.0347C247.66 78.6727 247.842 79.231 248.082 79.7095V80H243.108C242.869 79.4987 242.687 78.8721 242.562 78.1201C242.448 77.3568 242.391 76.5934 242.391 75.8301ZM243.04 68.7378L243.074 71.5234H240.323C239.673 71.5234 239.109 71.5975 238.631 71.7456C238.152 71.8937 237.759 72.1045 237.452 72.3779C237.144 72.64 236.916 72.9476 236.768 73.3008C236.631 73.654 236.563 74.0413 236.563 74.4629C236.563 74.8844 236.66 75.2661 236.854 75.6079C237.047 75.9383 237.326 76.2004 237.691 76.394C238.056 76.5763 238.483 76.6675 238.973 76.6675C239.713 76.6675 240.357 76.5194 240.904 76.2231C241.451 75.9269 241.872 75.5623 242.168 75.1294C242.476 74.6965 242.636 74.2863 242.647 73.8989L243.946 75.9839C243.764 76.451 243.513 76.9352 243.194 77.4365C242.886 77.9378 242.493 78.4106 242.015 78.855C241.536 79.2879 240.961 79.6468 240.289 79.9316C239.616 80.2051 238.819 80.3418 237.896 80.3418C236.722 80.3418 235.657 80.1082 234.7 79.6411C233.755 79.1626 233.003 78.5075 232.444 77.6758C231.897 76.8327 231.624 75.8757 231.624 74.8047C231.624 73.8363 231.806 72.9761 232.171 72.2241C232.535 71.4722 233.071 70.8398 233.777 70.3271C234.495 69.8031 235.389 69.41 236.46 69.1479C237.531 68.8745 238.773 68.7378 240.186 68.7378H243.04ZM251.141 53.75H256.062V75.7617L255.567 80H251.141V53.75ZM267.769 70.5664V70.9253C267.769 72.3039 267.621 73.5685 267.325 74.7192C267.04 75.87 266.596 76.8669 265.992 77.71C265.388 78.5417 264.636 79.1911 263.736 79.6582C262.847 80.1139 261.799 80.3418 260.591 80.3418C259.463 80.3418 258.484 80.1139 257.652 79.6582C256.832 79.2025 256.142 78.5588 255.584 77.7271C255.026 76.8953 254.576 75.9212 254.234 74.8047C253.892 73.6882 253.636 72.4691 253.465 71.1475V70.3613C253.636 69.0397 253.892 67.8206 254.234 66.7041C254.576 65.5876 255.026 64.6134 255.584 63.7817C256.142 62.95 256.832 62.3063 257.652 61.8506C258.472 61.3949 259.441 61.167 260.557 61.167C261.776 61.167 262.836 61.4006 263.736 61.8677C264.647 62.3234 265.399 62.9728 265.992 63.8159C266.596 64.6476 267.04 65.6388 267.325 66.7896C267.621 67.9289 267.769 69.1878 267.769 70.5664ZM262.847 70.9253V70.5664C262.847 69.8145 262.79 69.1081 262.676 68.4473C262.574 67.7751 262.391 67.1883 262.129 66.687C261.867 66.1743 261.508 65.7699 261.053 65.4736C260.608 65.1774 260.033 65.0293 259.327 65.0293C258.654 65.0293 258.085 65.1432 257.618 65.3711C257.151 65.599 256.763 65.918 256.456 66.3281C256.159 66.7383 255.937 67.2282 255.789 67.7979C255.641 68.3561 255.55 68.9714 255.516 69.6436V71.8823C255.55 72.7824 255.698 73.5799 255.96 74.2749C256.233 74.9585 256.644 75.4997 257.19 75.8984C257.749 76.2858 258.472 76.4795 259.361 76.4795C260.056 76.4795 260.631 76.3428 261.087 76.0693C261.543 75.7959 261.896 75.4085 262.146 74.9072C262.409 74.4059 262.591 73.8192 262.693 73.147C262.796 72.4634 262.847 71.7228 262.847 70.9253ZM280.809 75.8301V67.5928C280.809 67.0003 280.712 66.4933 280.518 66.0718C280.324 65.6388 280.022 65.3027 279.612 65.0635C279.214 64.8242 278.695 64.7046 278.057 64.7046C277.51 64.7046 277.037 64.8014 276.639 64.9951C276.24 65.1774 275.932 65.4451 275.716 65.7983C275.499 66.1401 275.391 66.5446 275.391 67.0117H270.469C270.469 66.2256 270.652 65.4793 271.016 64.7729C271.381 64.0666 271.91 63.4456 272.605 62.9102C273.3 62.3633 274.126 61.936 275.083 61.6284C276.052 61.3208 277.134 61.167 278.331 61.167C279.766 61.167 281.042 61.4062 282.159 61.8848C283.275 62.3633 284.153 63.0811 284.791 64.0381C285.44 64.9951 285.765 66.1914 285.765 67.627V75.5396C285.765 76.5535 285.827 77.3853 285.953 78.0347C286.078 78.6727 286.26 79.231 286.5 79.7095V80H281.526C281.287 79.4987 281.105 78.8721 280.979 78.1201C280.866 77.3568 280.809 76.5934 280.809 75.8301ZM281.458 68.7378L281.492 71.5234H278.741C278.091 71.5234 277.527 71.5975 277.049 71.7456C276.57 71.8937 276.177 72.1045 275.87 72.3779C275.562 72.64 275.334 72.9476 275.186 73.3008C275.049 73.654 274.981 74.0413 274.981 74.4629C274.981 74.8844 275.078 75.2661 275.271 75.6079C275.465 75.9383 275.744 76.2004 276.109 76.394C276.473 76.5763 276.901 76.6675 277.391 76.6675C278.131 76.6675 278.775 76.5194 279.322 76.2231C279.869 75.9269 280.29 75.5623 280.586 75.1294C280.894 74.6965 281.054 74.2863 281.065 73.8989L282.364 75.9839C282.181 76.451 281.931 76.9352 281.612 77.4365C281.304 77.9378 280.911 78.4106 280.433 78.855C279.954 79.2879 279.379 79.6468 278.707 79.9316C278.034 80.2051 277.237 80.3418 276.314 80.3418C275.14 80.3418 274.075 80.1082 273.118 79.6411C272.173 79.1626 271.421 78.5075 270.862 77.6758C270.315 76.8327 270.042 75.8757 270.042 74.8047C270.042 73.8363 270.224 72.9761 270.589 72.2241C270.953 71.4722 271.489 70.8398 272.195 70.3271C272.913 69.8031 273.807 69.41 274.878 69.1479C275.949 68.8745 277.191 68.7378 278.604 68.7378H281.458ZM294.754 53.75V80H289.815V53.75H294.754ZM308.802 75.8301V67.5928C308.802 67.0003 308.705 66.4933 308.511 66.0718C308.318 65.6388 308.016 65.3027 307.605 65.0635C307.207 64.8242 306.688 64.7046 306.05 64.7046C305.503 64.7046 305.031 64.8014 304.632 64.9951C304.233 65.1774 303.925 65.4451 303.709 65.7983C303.493 66.1401 303.384 66.5446 303.384 67.0117H298.462C298.462 66.2256 298.645 65.4793 299.009 64.7729C299.374 64.0666 299.904 63.4456 300.599 62.9102C301.294 62.3633 302.12 61.936 303.077 61.6284C304.045 61.3208 305.127 61.167 306.324 61.167C307.759 61.167 309.035 61.4062 310.152 61.8848C311.268 62.3633 312.146 63.0811 312.784 64.0381C313.433 64.9951 313.758 66.1914 313.758 67.627V75.5396C313.758 76.5535 313.82 77.3853 313.946 78.0347C314.071 78.6727 314.253 79.231 314.493 79.7095V80H309.52C309.28 79.4987 309.098 78.8721 308.973 78.1201C308.859 77.3568 308.802 76.5934 308.802 75.8301ZM309.451 68.7378L309.485 71.5234H306.734C306.084 71.5234 305.521 71.5975 305.042 71.7456C304.563 71.8937 304.17 72.1045 303.863 72.3779C303.555 72.64 303.327 72.9476 303.179 73.3008C303.042 73.654 302.974 74.0413 302.974 74.4629C302.974 74.8844 303.071 75.2661 303.265 75.6079C303.458 75.9383 303.737 76.2004 304.102 76.394C304.467 76.5763 304.894 76.6675 305.384 76.6675C306.124 76.6675 306.768 76.5194 307.315 76.2231C307.862 75.9269 308.283 75.5623 308.58 75.1294C308.887 74.6965 309.047 74.2863 309.058 73.8989L310.357 75.9839C310.175 76.451 309.924 76.9352 309.605 77.4365C309.297 77.9378 308.904 78.4106 308.426 78.855C307.947 79.2879 307.372 79.6468 306.7 79.9316C306.028 80.2051 305.23 80.3418 304.307 80.3418C303.134 80.3418 302.068 80.1082 301.111 79.6411C300.166 79.1626 299.414 78.5075 298.855 77.6758C298.309 76.8327 298.035 75.8757 298.035 74.8047C298.035 73.8363 298.217 72.9761 298.582 72.2241C298.947 71.4722 299.482 70.8398 300.188 70.3271C300.906 69.8031 301.801 69.41 302.872 69.1479C303.943 68.8745 305.184 68.7378 306.597 68.7378H309.451ZM322.371 65.4565V80H317.449V61.5088H322.063L322.371 65.4565ZM321.653 70.105H320.32C320.32 68.7378 320.497 67.5073 320.85 66.4136C321.203 65.3084 321.699 64.3685 322.337 63.5938C322.975 62.8076 323.733 62.2095 324.61 61.7993C325.499 61.3778 326.49 61.167 327.583 61.167C328.449 61.167 329.241 61.2923 329.959 61.543C330.677 61.7936 331.292 62.1924 331.805 62.7393C332.329 63.2861 332.728 64.0096 333.001 64.9097C333.286 65.8097 333.428 66.9092 333.428 68.208V80H328.472V68.1909C328.472 67.3706 328.358 66.7326 328.13 66.2769C327.903 65.8211 327.566 65.5021 327.122 65.3198C326.689 65.1261 326.154 65.0293 325.516 65.0293C324.855 65.0293 324.279 65.1603 323.79 65.4224C323.311 65.6844 322.912 66.049 322.593 66.5161C322.286 66.9718 322.052 67.5073 321.893 68.1226C321.733 68.7378 321.653 69.3986 321.653 70.105Z" fill="#888888"/>
<rect x="92" y="181" width="1179" height="80" rx="13.3333" fill="#CCCCCC"/>
<rect x="107" y="196.333" width="208" height="49.3333" rx="4.66667" fill="#BD4543" stroke="#BD4543" stroke-width="4"/>
<path d="M171.823 213.167H177.792C178.958 213.167 179.972 213.34 180.833 213.688C181.694 214.035 182.358 214.549 182.823 215.229C183.295 215.91 183.531 216.75 183.531 217.75C183.531 218.618 183.396 219.344 183.125 219.927C182.854 220.51 182.476 220.993 181.99 221.375C181.51 221.75 180.951 222.059 180.312 222.302L179.115 222.979H174.104L174.083 220.156H177.792C178.257 220.156 178.642 220.073 178.948 219.906C179.253 219.74 179.483 219.504 179.635 219.198C179.795 218.885 179.875 218.514 179.875 218.083C179.875 217.646 179.795 217.271 179.635 216.958C179.476 216.646 179.24 216.406 178.927 216.24C178.622 216.073 178.243 215.99 177.792 215.99H175.479V228.333H171.823V213.167ZM180.125 228.333L176.771 221.625L180.646 221.604L184.042 228.177V228.333H180.125ZM191.031 228.542C190.115 228.542 189.295 228.399 188.573 228.115C187.851 227.823 187.24 227.424 186.74 226.917C186.247 226.41 185.868 225.826 185.604 225.167C185.347 224.507 185.219 223.809 185.219 223.073V222.677C185.219 221.851 185.333 221.087 185.562 220.385C185.792 219.677 186.132 219.059 186.583 218.531C187.035 218.004 187.601 217.594 188.281 217.302C188.962 217.004 189.753 216.854 190.656 216.854C191.455 216.854 192.17 216.983 192.802 217.24C193.434 217.497 193.969 217.865 194.406 218.344C194.851 218.823 195.187 219.403 195.417 220.083C195.653 220.764 195.771 221.528 195.771 222.375V223.802H186.562V221.604H192.344V221.333C192.351 220.958 192.285 220.639 192.146 220.375C192.014 220.111 191.819 219.91 191.562 219.771C191.306 219.632 190.993 219.563 190.625 219.563C190.243 219.563 189.927 219.646 189.677 219.813C189.434 219.979 189.243 220.208 189.104 220.5C188.972 220.785 188.878 221.115 188.823 221.49C188.767 221.865 188.74 222.26 188.74 222.677V223.073C188.74 223.49 188.795 223.868 188.906 224.208C189.024 224.549 189.191 224.84 189.406 225.083C189.628 225.319 189.892 225.504 190.198 225.635C190.51 225.767 190.865 225.833 191.26 225.833C191.74 225.833 192.212 225.743 192.677 225.563C193.142 225.382 193.542 225.083 193.875 224.667L195.469 226.563C195.24 226.889 194.913 227.205 194.49 227.51C194.073 227.816 193.573 228.066 192.99 228.26C192.406 228.448 191.753 228.542 191.031 228.542ZM203.052 225.5V220.854C203.052 220.535 203.007 220.26 202.917 220.031C202.826 219.802 202.684 219.625 202.49 219.5C202.295 219.368 202.035 219.302 201.708 219.302C201.444 219.302 201.219 219.347 201.031 219.438C200.844 219.528 200.701 219.663 200.604 219.844C200.507 220.024 200.458 220.254 200.458 220.531H196.948C196.948 220.01 197.062 219.528 197.292 219.083C197.528 218.632 197.861 218.24 198.292 217.906C198.729 217.573 199.25 217.316 199.854 217.135C200.465 216.948 201.146 216.854 201.896 216.854C202.792 216.854 203.59 217.004 204.292 217.302C205 217.601 205.559 218.049 205.969 218.646C206.378 219.236 206.583 219.979 206.583 220.875V225.49C206.583 226.226 206.625 226.785 206.708 227.167C206.792 227.542 206.91 227.872 207.062 228.156V228.333H203.542C203.375 227.986 203.25 227.563 203.167 227.063C203.09 226.556 203.052 226.035 203.052 225.5ZM203.479 221.448L203.5 223.323H201.948C201.622 223.323 201.344 223.368 201.115 223.458C200.892 223.549 200.712 223.674 200.573 223.833C200.441 223.986 200.344 224.16 200.281 224.354C200.226 224.549 200.198 224.754 200.198 224.969C200.198 225.177 200.247 225.365 200.344 225.531C200.448 225.691 200.587 225.816 200.76 225.906C200.934 225.997 201.128 226.042 201.344 226.042C201.733 226.042 202.062 225.969 202.333 225.823C202.611 225.67 202.823 225.486 202.969 225.271C203.115 225.056 203.187 224.854 203.187 224.667L203.958 226.104C203.819 226.382 203.66 226.663 203.479 226.948C203.306 227.233 203.087 227.497 202.823 227.74C202.566 227.976 202.25 228.17 201.875 228.323C201.5 228.469 201.045 228.542 200.51 228.542C199.816 228.542 199.177 228.399 198.594 228.115C198.017 227.83 197.556 227.434 197.208 226.927C196.861 226.413 196.687 225.823 196.687 225.156C196.687 224.573 196.792 224.052 197 223.594C197.215 223.135 197.538 222.747 197.969 222.427C198.399 222.108 198.948 221.865 199.615 221.698C200.281 221.531 201.066 221.448 201.969 221.448H203.479ZM213.292 225.833C213.618 225.833 213.896 225.774 214.125 225.656C214.361 225.531 214.538 225.358 214.656 225.135C214.781 224.906 214.84 224.632 214.833 224.313H218.135C218.142 225.16 217.934 225.903 217.51 226.542C217.094 227.174 216.524 227.667 215.802 228.021C215.087 228.368 214.278 228.542 213.375 228.542C212.493 228.542 211.722 228.399 211.062 228.115C210.403 227.823 209.851 227.42 209.406 226.906C208.969 226.385 208.639 225.778 208.417 225.083C208.201 224.389 208.094 223.635 208.094 222.823V222.583C208.094 221.771 208.201 221.017 208.417 220.323C208.639 219.622 208.969 219.014 209.406 218.5C209.851 217.979 210.399 217.576 211.052 217.292C211.712 217 212.479 216.854 213.354 216.854C214.292 216.854 215.118 217.031 215.833 217.385C216.556 217.74 217.122 218.254 217.531 218.927C217.941 219.601 218.142 220.417 218.135 221.375H214.833C214.84 221.035 214.788 220.729 214.677 220.458C214.566 220.188 214.392 219.972 214.156 219.813C213.927 219.646 213.632 219.563 213.271 219.563C212.91 219.563 212.618 219.642 212.396 219.802C212.174 219.962 212.003 220.184 211.885 220.469C211.774 220.747 211.698 221.066 211.656 221.427C211.622 221.788 211.604 222.174 211.604 222.583V222.823C211.604 223.24 211.622 223.632 211.656 224C211.698 224.361 211.778 224.681 211.896 224.958C212.014 225.229 212.184 225.444 212.406 225.604C212.628 225.757 212.924 225.833 213.292 225.833ZM225.573 217.063V219.5H218.781V217.063H225.573ZM220.208 214.26H223.719V224.656C223.719 224.955 223.753 225.188 223.823 225.354C223.892 225.514 224.01 225.629 224.177 225.698C224.351 225.76 224.58 225.792 224.865 225.792C225.066 225.792 225.233 225.788 225.365 225.781C225.497 225.767 225.622 225.75 225.74 225.729V228.24C225.441 228.337 225.128 228.41 224.802 228.458C224.476 228.514 224.128 228.542 223.76 228.542C223.01 228.542 222.368 228.424 221.833 228.188C221.306 227.951 220.903 227.58 220.625 227.073C220.347 226.566 220.208 225.906 220.208 225.094V214.26ZM233.167 223.573V213.167H236.812V223.573C236.812 224.587 236.58 225.465 236.115 226.208C235.656 226.951 235.031 227.528 234.24 227.938C233.455 228.34 232.573 228.542 231.594 228.542C230.58 228.542 229.677 228.372 228.885 228.031C228.101 227.691 227.483 227.167 227.031 226.458C226.587 225.75 226.365 224.847 226.365 223.75H230.031C230.031 224.264 230.09 224.667 230.208 224.958C230.326 225.243 230.5 225.444 230.729 225.563C230.965 225.674 231.253 225.729 231.594 225.729C231.927 225.729 232.208 225.646 232.437 225.479C232.674 225.306 232.854 225.059 232.979 224.74C233.104 224.413 233.167 224.024 233.167 223.573ZM246.948 224.302C246.948 224.066 246.913 223.854 246.844 223.667C246.774 223.472 246.646 223.292 246.458 223.125C246.271 222.958 246 222.792 245.646 222.625C245.299 222.451 244.84 222.271 244.271 222.083C243.604 221.861 242.962 221.611 242.344 221.333C241.726 221.049 241.174 220.719 240.687 220.344C240.201 219.962 239.816 219.517 239.531 219.01C239.247 218.497 239.104 217.899 239.104 217.219C239.104 216.566 239.25 215.979 239.542 215.458C239.833 214.931 240.24 214.483 240.76 214.115C241.288 213.74 241.906 213.455 242.615 213.26C243.323 213.059 244.097 212.958 244.937 212.958C246.049 212.958 247.028 213.153 247.875 213.542C248.729 213.924 249.396 214.469 249.875 215.177C250.361 215.879 250.604 216.708 250.604 217.667H246.969C246.969 217.285 246.889 216.948 246.729 216.656C246.576 216.365 246.344 216.135 246.031 215.969C245.719 215.802 245.326 215.719 244.854 215.719C244.396 215.719 244.01 215.788 243.698 215.927C243.385 216.066 243.149 216.254 242.99 216.49C242.83 216.719 242.75 216.972 242.75 217.25C242.75 217.479 242.812 217.688 242.937 217.875C243.069 218.056 243.253 218.226 243.49 218.385C243.733 218.545 244.024 218.698 244.365 218.844C244.712 218.99 245.101 219.132 245.531 219.271C246.337 219.528 247.052 219.816 247.677 220.135C248.309 220.448 248.84 220.806 249.271 221.208C249.708 221.604 250.038 222.056 250.26 222.563C250.49 223.069 250.604 223.642 250.604 224.281C250.604 224.962 250.472 225.566 250.208 226.094C249.944 226.622 249.566 227.069 249.073 227.438C248.58 227.799 247.99 228.073 247.302 228.26C246.615 228.448 245.847 228.542 245 228.542C244.222 228.542 243.455 228.444 242.698 228.25C241.948 228.049 241.267 227.743 240.656 227.333C240.045 226.917 239.556 226.385 239.187 225.74C238.826 225.087 238.646 224.313 238.646 223.417H242.312C242.312 223.861 242.372 224.236 242.49 224.542C242.608 224.847 242.781 225.094 243.01 225.281C243.24 225.462 243.521 225.594 243.854 225.677C244.187 225.754 244.569 225.792 245 225.792C245.465 225.792 245.84 225.726 246.125 225.594C246.41 225.455 246.618 225.274 246.75 225.052C246.882 224.823 246.948 224.573 246.948 224.302Z" fill="white"/>
<rect x="339" y="196.333" width="208" height="49.3333" rx="4.66667" fill="#BD4543" stroke="#BD4543" stroke-width="4"/>
<path d="M419.073 225.521V228.333H411.406V225.521H419.073ZM412.708 213.167V228.333H409.052V213.167H412.708ZM426.302 225.5V220.854C426.302 220.535 426.257 220.26 426.167 220.031C426.076 219.802 425.934 219.625 425.74 219.5C425.545 219.368 425.285 219.302 424.958 219.302C424.694 219.302 424.469 219.347 424.281 219.438C424.094 219.528 423.951 219.663 423.854 219.844C423.757 220.024 423.708 220.254 423.708 220.531H420.198C420.198 220.01 420.312 219.528 420.542 219.083C420.778 218.632 421.111 218.24 421.542 217.906C421.979 217.573 422.5 217.316 423.104 217.135C423.715 216.948 424.396 216.854 425.146 216.854C426.042 216.854 426.84 217.004 427.542 217.302C428.25 217.601 428.809 218.049 429.219 218.646C429.628 219.236 429.833 219.979 429.833 220.875V225.49C429.833 226.226 429.875 226.785 429.958 227.167C430.042 227.542 430.16 227.872 430.312 228.156V228.333H426.792C426.625 227.986 426.5 227.563 426.417 227.063C426.34 226.556 426.302 226.035 426.302 225.5ZM426.729 221.448L426.75 223.323H425.198C424.872 223.323 424.594 223.368 424.365 223.458C424.142 223.549 423.962 223.674 423.823 223.833C423.691 223.986 423.594 224.16 423.531 224.354C423.476 224.549 423.448 224.754 423.448 224.969C423.448 225.177 423.497 225.365 423.594 225.531C423.698 225.691 423.837 225.816 424.01 225.906C424.184 225.997 424.378 226.042 424.594 226.042C424.983 226.042 425.312 225.969 425.583 225.823C425.861 225.67 426.073 225.486 426.219 225.271C426.365 225.056 426.437 224.854 426.437 224.667L427.208 226.104C427.069 226.382 426.91 226.663 426.729 226.948C426.556 227.233 426.337 227.497 426.073 227.74C425.816 227.976 425.5 228.17 425.125 228.323C424.75 228.469 424.295 228.542 423.76 228.542C423.066 228.542 422.427 228.399 421.844 228.115C421.267 227.83 420.806 227.434 420.458 226.927C420.111 226.413 419.937 225.823 419.937 225.156C419.937 224.573 420.042 224.052 420.25 223.594C420.465 223.135 420.788 222.747 421.219 222.427C421.649 222.108 422.198 221.865 422.865 221.698C423.531 221.531 424.316 221.448 425.219 221.448H426.729ZM435.323 219.854V228.333H431.812V217.063H435.094L435.323 219.854ZM438.656 216.979L438.594 220.24C438.455 220.226 438.267 220.208 438.031 220.188C437.795 220.167 437.597 220.156 437.437 220.156C437.028 220.156 436.674 220.205 436.375 220.302C436.083 220.392 435.84 220.531 435.646 220.719C435.458 220.899 435.319 221.129 435.229 221.406C435.146 221.684 435.108 222.007 435.115 222.375L434.479 221.958C434.479 221.201 434.552 220.514 434.698 219.896C434.851 219.271 435.066 218.733 435.344 218.281C435.622 217.823 435.958 217.472 436.354 217.229C436.75 216.979 437.194 216.854 437.687 216.854C437.861 216.854 438.031 216.865 438.198 216.885C438.372 216.906 438.524 216.938 438.656 216.979ZM445.406 225.5V220.854C445.406 220.535 445.361 220.26 445.271 220.031C445.181 219.802 445.038 219.625 444.844 219.5C444.649 219.368 444.389 219.302 444.063 219.302C443.799 219.302 443.573 219.347 443.385 219.438C443.198 219.528 443.056 219.663 442.958 219.844C442.861 220.024 442.813 220.254 442.813 220.531H439.302C439.302 220.01 439.417 219.528 439.646 219.083C439.882 218.632 440.215 218.24 440.646 217.906C441.083 217.573 441.604 217.316 442.208 217.135C442.819 216.948 443.5 216.854 444.25 216.854C445.146 216.854 445.944 217.004 446.646 217.302C447.354 217.601 447.913 218.049 448.323 218.646C448.733 219.236 448.938 219.979 448.938 220.875V225.49C448.938 226.226 448.979 226.785 449.063 227.167C449.146 227.542 449.264 227.872 449.417 228.156V228.333H445.896C445.729 227.986 445.604 227.563 445.521 227.063C445.444 226.556 445.406 226.035 445.406 225.5ZM445.833 221.448L445.854 223.323H444.302C443.976 223.323 443.698 223.368 443.469 223.458C443.247 223.549 443.066 223.674 442.927 223.833C442.795 223.986 442.698 224.16 442.635 224.354C442.58 224.549 442.552 224.754 442.552 224.969C442.552 225.177 442.601 225.365 442.698 225.531C442.802 225.691 442.941 225.816 443.115 225.906C443.288 225.997 443.483 226.042 443.698 226.042C444.087 226.042 444.417 225.969 444.688 225.823C444.965 225.67 445.177 225.486 445.323 225.271C445.469 225.056 445.542 224.854 445.542 224.667L446.313 226.104C446.174 226.382 446.014 226.663 445.833 226.948C445.66 227.233 445.441 227.497 445.177 227.74C444.92 227.976 444.604 228.17 444.229 228.323C443.854 228.469 443.399 228.542 442.865 228.542C442.17 228.542 441.531 228.399 440.948 228.115C440.372 227.83 439.91 227.434 439.563 226.927C439.215 226.413 439.042 225.823 439.042 225.156C439.042 224.573 439.146 224.052 439.354 223.594C439.569 223.135 439.892 222.747 440.323 222.427C440.753 222.108 441.302 221.865 441.969 221.698C442.635 221.531 443.42 221.448 444.323 221.448H445.833ZM454.781 225.927L457 217.063H460.698L457.01 228.333H454.823L454.781 225.927ZM453.469 217.063L455.656 225.927L455.635 228.333H453.437L449.76 217.063H453.469ZM467.052 228.542C466.135 228.542 465.316 228.399 464.594 228.115C463.872 227.823 463.26 227.424 462.76 226.917C462.267 226.41 461.889 225.826 461.625 225.167C461.368 224.507 461.24 223.809 461.24 223.073V222.677C461.24 221.851 461.354 221.087 461.583 220.385C461.812 219.677 462.153 219.059 462.604 218.531C463.056 218.004 463.622 217.594 464.302 217.302C464.983 217.004 465.774 216.854 466.677 216.854C467.476 216.854 468.191 216.983 468.823 217.24C469.455 217.497 469.99 217.865 470.427 218.344C470.872 218.823 471.208 219.403 471.437 220.083C471.674 220.764 471.792 221.528 471.792 222.375V223.802H462.583V221.604H468.365V221.333C468.372 220.958 468.306 220.639 468.167 220.375C468.035 220.111 467.84 219.91 467.583 219.771C467.326 219.632 467.014 219.563 466.646 219.563C466.264 219.563 465.948 219.646 465.698 219.813C465.455 219.979 465.264 220.208 465.125 220.5C464.993 220.785 464.899 221.115 464.844 221.49C464.788 221.865 464.76 222.26 464.76 222.677V223.073C464.76 223.49 464.816 223.868 464.927 224.208C465.045 224.549 465.212 224.84 465.427 225.083C465.649 225.319 465.913 225.504 466.219 225.635C466.531 225.767 466.885 225.833 467.281 225.833C467.76 225.833 468.233 225.743 468.698 225.563C469.163 225.382 469.562 225.083 469.896 224.667L471.49 226.563C471.26 226.889 470.934 227.205 470.51 227.51C470.094 227.816 469.594 228.066 469.01 228.26C468.427 228.448 467.774 228.542 467.052 228.542ZM476.927 212.333V228.333H473.406V212.333H476.927Z" fill="white"/>
<rect x="571" y="196.333" width="208" height="49.3333" rx="4.66667" fill="#BD4543" stroke="#BD4543" stroke-width="4"/>
<path d="M614.833 213.167H620.802C621.969 213.167 622.983 213.34 623.844 213.688C624.705 214.035 625.368 214.549 625.833 215.229C626.306 215.91 626.542 216.75 626.542 217.75C626.542 218.618 626.406 219.344 626.135 219.927C625.865 220.51 625.486 220.993 625 221.375C624.521 221.75 623.962 222.059 623.323 222.302L622.125 222.979H617.115L617.094 220.156H620.802C621.267 220.156 621.653 220.073 621.958 219.906C622.264 219.74 622.493 219.504 622.646 219.198C622.806 218.885 622.885 218.514 622.885 218.083C622.885 217.646 622.806 217.271 622.646 216.958C622.486 216.646 622.25 216.406 621.937 216.24C621.632 216.073 621.253 215.99 620.802 215.99H618.49V228.333H614.833V213.167ZM623.135 228.333L619.781 221.625L623.656 221.604L627.052 228.177V228.333H623.135ZM634.042 228.542C633.125 228.542 632.306 228.399 631.583 228.115C630.861 227.823 630.25 227.424 629.75 226.917C629.257 226.41 628.878 225.826 628.615 225.167C628.358 224.507 628.229 223.809 628.229 223.073V222.677C628.229 221.851 628.344 221.087 628.573 220.385C628.802 219.677 629.142 219.059 629.594 218.531C630.045 218.004 630.611 217.594 631.292 217.302C631.972 217.004 632.764 216.854 633.667 216.854C634.465 216.854 635.181 216.983 635.813 217.24C636.444 217.497 636.979 217.865 637.417 218.344C637.861 218.823 638.198 219.403 638.427 220.083C638.663 220.764 638.781 221.528 638.781 222.375V223.802H629.573V221.604H635.354V221.333C635.361 220.958 635.295 220.639 635.156 220.375C635.024 220.111 634.83 219.91 634.573 219.771C634.316 219.632 634.003 219.563 633.635 219.563C633.253 219.563 632.938 219.646 632.688 219.813C632.444 219.979 632.253 220.208 632.115 220.5C631.983 220.785 631.889 221.115 631.833 221.49C631.778 221.865 631.75 222.26 631.75 222.677V223.073C631.75 223.49 631.806 223.868 631.917 224.208C632.035 224.549 632.201 224.84 632.417 225.083C632.639 225.319 632.903 225.504 633.208 225.635C633.521 225.767 633.875 225.833 634.271 225.833C634.75 225.833 635.222 225.743 635.688 225.563C636.153 225.382 636.552 225.083 636.885 224.667L638.479 226.563C638.25 226.889 637.924 227.205 637.5 227.51C637.083 227.816 636.583 228.066 636 228.26C635.417 228.448 634.764 228.542 634.042 228.542ZM646.063 225.5V220.854C646.063 220.535 646.017 220.26 645.927 220.031C645.837 219.802 645.694 219.625 645.5 219.5C645.306 219.368 645.045 219.302 644.719 219.302C644.455 219.302 644.229 219.347 644.042 219.438C643.854 219.528 643.712 219.663 643.615 219.844C643.517 220.024 643.469 220.254 643.469 220.531H639.958C639.958 220.01 640.073 219.528 640.302 219.083C640.538 218.632 640.872 218.24 641.302 217.906C641.74 217.573 642.26 217.316 642.865 217.135C643.476 216.948 644.156 216.854 644.906 216.854C645.802 216.854 646.601 217.004 647.302 217.302C648.01 217.601 648.569 218.049 648.979 218.646C649.389 219.236 649.594 219.979 649.594 220.875V225.49C649.594 226.226 649.635 226.785 649.719 227.167C649.802 227.542 649.92 227.872 650.073 228.156V228.333H646.552C646.385 227.986 646.26 227.563 646.177 227.063C646.101 226.556 646.063 226.035 646.063 225.5ZM646.49 221.448L646.51 223.323H644.958C644.632 223.323 644.354 223.368 644.125 223.458C643.903 223.549 643.722 223.674 643.583 223.833C643.451 223.986 643.354 224.16 643.292 224.354C643.236 224.549 643.208 224.754 643.208 224.969C643.208 225.177 643.257 225.365 643.354 225.531C643.458 225.691 643.597 225.816 643.771 225.906C643.944 225.997 644.139 226.042 644.354 226.042C644.743 226.042 645.073 225.969 645.344 225.823C645.622 225.67 645.833 225.486 645.979 225.271C646.125 225.056 646.198 224.854 646.198 224.667L646.969 226.104C646.83 226.382 646.67 226.663 646.49 226.948C646.316 227.233 646.097 227.497 645.833 227.74C645.576 227.976 645.26 228.17 644.885 228.323C644.51 228.469 644.056 228.542 643.521 228.542C642.826 228.542 642.188 228.399 641.604 228.115C641.028 227.83 640.566 227.434 640.219 226.927C639.872 226.413 639.698 225.823 639.698 225.156C639.698 224.573 639.802 224.052 640.01 223.594C640.226 223.135 640.549 222.747 640.979 222.427C641.41 222.108 641.958 221.865 642.625 221.698C643.292 221.531 644.076 221.448 644.979 221.448H646.49ZM656.302 225.833C656.628 225.833 656.906 225.774 657.135 225.656C657.372 225.531 657.549 225.358 657.667 225.135C657.792 224.906 657.851 224.632 657.844 224.313H661.146C661.153 225.16 660.944 225.903 660.521 226.542C660.104 227.174 659.535 227.667 658.812 228.021C658.097 228.368 657.288 228.542 656.385 228.542C655.503 228.542 654.733 228.399 654.073 228.115C653.413 227.823 652.861 227.42 652.417 226.906C651.979 226.385 651.649 225.778 651.427 225.083C651.212 224.389 651.104 223.635 651.104 222.823V222.583C651.104 221.771 651.212 221.017 651.427 220.323C651.649 219.622 651.979 219.014 652.417 218.5C652.861 217.979 653.41 217.576 654.062 217.292C654.722 217 655.49 216.854 656.365 216.854C657.302 216.854 658.128 217.031 658.844 217.385C659.566 217.74 660.132 218.254 660.542 218.927C660.951 219.601 661.153 220.417 661.146 221.375H657.844C657.851 221.035 657.799 220.729 657.687 220.458C657.576 220.188 657.403 219.972 657.167 219.813C656.937 219.646 656.642 219.563 656.281 219.563C655.92 219.563 655.628 219.642 655.406 219.802C655.184 219.962 655.014 220.184 654.896 220.469C654.785 220.747 654.708 221.066 654.667 221.427C654.632 221.788 654.615 222.174 654.615 222.583V222.823C654.615 223.24 654.632 223.632 654.667 224C654.708 224.361 654.788 224.681 654.906 224.958C655.024 225.229 655.194 225.444 655.417 225.604C655.639 225.757 655.934 225.833 656.302 225.833ZM668.583 217.063V219.5H661.792V217.063H668.583ZM663.219 214.26H666.729V224.656C666.729 224.955 666.764 225.188 666.833 225.354C666.903 225.514 667.021 225.629 667.188 225.698C667.361 225.76 667.59 225.792 667.875 225.792C668.076 225.792 668.243 225.788 668.375 225.781C668.507 225.767 668.632 225.75 668.75 225.729V228.24C668.451 228.337 668.139 228.41 667.813 228.458C667.486 228.514 667.139 228.542 666.771 228.542C666.021 228.542 665.378 228.424 664.844 228.188C664.316 227.951 663.913 227.58 663.635 227.073C663.358 226.566 663.219 225.906 663.219 225.094V214.26ZM688.125 213.167V228.333H684.479L679.115 218.896V228.333H675.458V213.167H679.115L684.479 222.604V213.167H688.125ZM696.125 225.5V220.854C696.125 220.535 696.08 220.26 695.99 220.031C695.899 219.802 695.757 219.625 695.563 219.5C695.368 219.368 695.108 219.302 694.781 219.302C694.517 219.302 694.292 219.347 694.104 219.438C693.917 219.528 693.774 219.663 693.677 219.844C693.58 220.024 693.531 220.254 693.531 220.531H690.021C690.021 220.01 690.135 219.528 690.365 219.083C690.601 218.632 690.934 218.24 691.365 217.906C691.802 217.573 692.323 217.316 692.927 217.135C693.538 216.948 694.219 216.854 694.969 216.854C695.865 216.854 696.663 217.004 697.365 217.302C698.073 217.601 698.632 218.049 699.042 218.646C699.451 219.236 699.656 219.979 699.656 220.875V225.49C699.656 226.226 699.698 226.785 699.781 227.167C699.865 227.542 699.983 227.872 700.135 228.156V228.333H696.615C696.448 227.986 696.323 227.563 696.24 227.063C696.163 226.556 696.125 226.035 696.125 225.5ZM696.552 221.448L696.573 223.323H695.021C694.694 223.323 694.417 223.368 694.188 223.458C693.965 223.549 693.785 223.674 693.646 223.833C693.514 223.986 693.417 224.16 693.354 224.354C693.299 224.549 693.271 224.754 693.271 224.969C693.271 225.177 693.319 225.365 693.417 225.531C693.521 225.691 693.66 225.816 693.833 225.906C694.007 225.997 694.201 226.042 694.417 226.042C694.806 226.042 695.135 225.969 695.406 225.823C695.684 225.67 695.896 225.486 696.042 225.271C696.188 225.056 696.26 224.854 696.26 224.667L697.031 226.104C696.892 226.382 696.733 226.663 696.552 226.948C696.378 227.233 696.16 227.497 695.896 227.74C695.639 227.976 695.323 228.17 694.948 228.323C694.573 228.469 694.118 228.542 693.583 228.542C692.889 228.542 692.25 228.399 691.667 228.115C691.09 227.83 690.628 227.434 690.281 226.927C689.934 226.413 689.76 225.823 689.76 225.156C689.76 224.573 689.865 224.052 690.073 223.594C690.288 223.135 690.611 222.747 691.042 222.427C691.472 222.108 692.021 221.865 692.688 221.698C693.354 221.531 694.139 221.448 695.042 221.448H696.552ZM707.542 217.063V219.5H700.75V217.063H707.542ZM702.177 214.26H705.687V224.656C705.687 224.955 705.722 225.188 705.792 225.354C705.861 225.514 705.979 225.629 706.146 225.698C706.319 225.76 706.549 225.792 706.833 225.792C707.035 225.792 707.201 225.788 707.333 225.781C707.465 225.767 707.59 225.75 707.708 225.729V228.24C707.41 228.337 707.097 228.41 706.771 228.458C706.444 228.514 706.097 228.542 705.729 228.542C704.979 228.542 704.337 228.424 703.802 228.188C703.274 227.951 702.872 227.58 702.594 227.073C702.316 226.566 702.177 225.906 702.177 225.094V214.26ZM712.646 217.063V228.333H709.125V217.063H712.646ZM708.917 214.156C708.917 213.656 709.097 213.247 709.458 212.927C709.819 212.608 710.288 212.448 710.865 212.448C711.441 212.448 711.91 212.608 712.271 212.927C712.632 213.247 712.813 213.656 712.813 214.156C712.813 214.656 712.632 215.066 712.271 215.385C711.91 215.705 711.441 215.865 710.865 215.865C710.288 215.865 709.819 215.705 709.458 215.385C709.097 215.066 708.917 214.656 708.917 214.156ZM718.875 225.927L721.094 217.063H724.792L721.104 228.333H718.917L718.875 225.927ZM717.563 217.063L719.75 225.927L719.729 228.333H717.531L713.854 217.063H717.563ZM731.146 228.542C730.229 228.542 729.41 228.399 728.688 228.115C727.965 227.823 727.354 227.424 726.854 226.917C726.361 226.41 725.983 225.826 725.719 225.167C725.462 224.507 725.333 223.809 725.333 223.073V222.677C725.333 221.851 725.448 221.087 725.677 220.385C725.906 219.677 726.247 219.059 726.698 218.531C727.149 218.004 727.715 217.594 728.396 217.302C729.076 217.004 729.868 216.854 730.771 216.854C731.569 216.854 732.285 216.983 732.917 217.24C733.549 217.497 734.083 217.865 734.521 218.344C734.965 218.823 735.302 219.403 735.531 220.083C735.767 220.764 735.885 221.528 735.885 222.375V223.802H726.677V221.604H732.458V221.333C732.465 220.958 732.399 220.639 732.26 220.375C732.128 220.111 731.934 219.91 731.677 219.771C731.42 219.632 731.108 219.563 730.74 219.563C730.358 219.563 730.042 219.646 729.792 219.813C729.549 219.979 729.358 220.208 729.219 220.5C729.087 220.785 728.993 221.115 728.938 221.49C728.882 221.865 728.854 222.26 728.854 222.677V223.073C728.854 223.49 728.91 223.868 729.021 224.208C729.139 224.549 729.306 224.84 729.521 225.083C729.743 225.319 730.007 225.504 730.313 225.635C730.625 225.767 730.979 225.833 731.375 225.833C731.854 225.833 732.326 225.743 732.792 225.563C733.257 225.382 733.656 225.083 733.99 224.667L735.583 226.563C735.354 226.889 735.028 227.205 734.604 227.51C734.188 227.816 733.688 228.066 733.104 228.26C732.521 228.448 731.868 228.542 731.146 228.542Z" fill="white"/>
</svg>
