<svg width="1363" height="167" viewBox="0 0 1363 167" fill="none" xmlns="http://www.w3.org/2000/svg">
<rect width="1363" height="167" rx="15" fill="#F0F0F0"/>
<path d="M0 15C0 6.71573 6.71573 0 15 0H37V167H15C6.71573 167 0 160.284 0 152V15Z" fill="#BD4543"/>
<path d="M100.906 54.9219L93.3945 52.2383V49.0859L103.602 53.375V55.6367L100.906 54.9219ZM93.3945 57.1719L100.918 54.4297L103.602 53.7852V56.0352L93.3945 60.3242V57.1719ZM122.867 59.2578V62H114.277V59.2578H122.867ZM115.414 44.9375V62H111.898V44.9375H115.414ZM130.508 62.2344C129.523 62.2344 128.641 62.0781 127.859 61.7656C127.078 61.4453 126.414 61.0039 125.867 60.4414C125.328 59.8789 124.914 59.2266 124.625 58.4844C124.336 57.7344 124.191 56.9375 124.191 56.0938V55.625C124.191 54.6641 124.328 53.7852 124.602 52.9883C124.875 52.1914 125.266 51.5 125.773 50.9141C126.289 50.3281 126.914 49.8789 127.648 49.5664C128.383 49.2461 129.211 49.0859 130.133 49.0859C131.031 49.0859 131.828 49.2344 132.523 49.5312C133.219 49.8281 133.801 50.25 134.27 50.7969C134.746 51.3438 135.105 52 135.348 52.7656C135.59 53.5234 135.711 54.3672 135.711 55.2969V56.7031H125.633V54.4531H132.395V54.1953C132.395 53.7266 132.309 53.3086 132.137 52.9414C131.973 52.5664 131.723 52.2695 131.387 52.0508C131.051 51.832 130.621 51.7227 130.098 51.7227C129.652 51.7227 129.27 51.8203 128.949 52.0156C128.629 52.2109 128.367 52.4844 128.164 52.8359C127.969 53.1875 127.82 53.6016 127.719 54.0781C127.625 54.5469 127.578 55.0625 127.578 55.625V56.0938C127.578 56.6016 127.648 57.0703 127.789 57.5C127.938 57.9297 128.145 58.3008 128.41 58.6133C128.684 58.9258 129.012 59.168 129.395 59.3398C129.785 59.5117 130.227 59.5977 130.719 59.5977C131.328 59.5977 131.895 59.4805 132.418 59.2461C132.949 59.0039 133.406 58.6406 133.789 58.1562L135.43 59.9375C135.164 60.3203 134.801 60.6875 134.34 61.0391C133.887 61.3906 133.34 61.6797 132.699 61.9062C132.059 62.125 131.328 62.2344 130.508 62.2344ZM137.633 44H141.008V59.0938L140.668 62H137.633V44ZM149.035 55.5312V55.7773C149.035 56.7227 148.934 57.5898 148.73 58.3789C148.535 59.168 148.23 59.8516 147.816 60.4297C147.402 61 146.887 61.4453 146.27 61.7656C145.66 62.0781 144.941 62.2344 144.113 62.2344C143.34 62.2344 142.668 62.0781 142.098 61.7656C141.535 61.4531 141.062 61.0117 140.68 60.4414C140.297 59.8711 139.988 59.2031 139.754 58.4375C139.52 57.6719 139.344 56.8359 139.227 55.9297V55.3906C139.344 54.4844 139.52 53.6484 139.754 52.8828C139.988 52.1172 140.297 51.4492 140.68 50.8789C141.062 50.3086 141.535 49.8672 142.098 49.5547C142.66 49.2422 143.324 49.0859 144.09 49.0859C144.926 49.0859 145.652 49.2461 146.27 49.5664C146.895 49.8789 147.41 50.3242 147.816 50.9023C148.23 51.4727 148.535 52.1523 148.73 52.9414C148.934 53.7227 149.035 54.5859 149.035 55.5312ZM145.66 55.7773V55.5312C145.66 55.0156 145.621 54.5312 145.543 54.0781C145.473 53.6172 145.348 53.2148 145.168 52.8711C144.988 52.5195 144.742 52.2422 144.43 52.0391C144.125 51.8359 143.73 51.7344 143.246 51.7344C142.785 51.7344 142.395 51.8125 142.074 51.9688C141.754 52.125 141.488 52.3438 141.277 52.625C141.074 52.9062 140.922 53.2422 140.82 53.6328C140.719 54.0156 140.656 54.4375 140.633 54.8984V56.4336C140.656 57.0508 140.758 57.5977 140.938 58.0742C141.125 58.543 141.406 58.9141 141.781 59.1875C142.164 59.4531 142.66 59.5859 143.27 59.5859C143.746 59.5859 144.141 59.4922 144.453 59.3047C144.766 59.1172 145.008 58.8516 145.18 58.5078C145.359 58.1641 145.484 57.7617 145.555 57.3008C145.625 56.832 145.66 56.3242 145.66 55.7773ZM158.973 44.9375V62H155.469V44.9375H158.973ZM164.223 44.9375V47.6914H150.301V44.9375H164.223ZM171.078 59.1406V53.4922C171.078 53.0859 171.012 52.7383 170.879 52.4492C170.746 52.1523 170.539 51.9219 170.258 51.7578C169.984 51.5938 169.629 51.5117 169.191 51.5117C168.816 51.5117 168.492 51.5781 168.219 51.7109C167.945 51.8359 167.734 52.0195 167.586 52.2617C167.438 52.4961 167.363 52.7734 167.363 53.0938H163.988C163.988 52.5547 164.113 52.043 164.363 51.5586C164.613 51.0742 164.977 50.6484 165.453 50.2812C165.93 49.9062 166.496 49.6133 167.152 49.4023C167.816 49.1914 168.559 49.0859 169.379 49.0859C170.363 49.0859 171.238 49.25 172.004 49.5781C172.77 49.9062 173.371 50.3984 173.809 51.0547C174.254 51.7109 174.477 52.5312 174.477 53.5156V58.9414C174.477 59.6367 174.52 60.207 174.605 60.6523C174.691 61.0898 174.816 61.4727 174.98 61.8008V62H171.57C171.406 61.6562 171.281 61.2266 171.195 60.7109C171.117 60.1875 171.078 59.6641 171.078 59.1406ZM171.523 54.2773L171.547 56.1875H169.66C169.215 56.1875 168.828 56.2383 168.5 56.3398C168.172 56.4414 167.902 56.5859 167.691 56.7734C167.48 56.9531 167.324 57.1641 167.223 57.4062C167.129 57.6484 167.082 57.9141 167.082 58.2031C167.082 58.4922 167.148 58.7539 167.281 58.9883C167.414 59.2148 167.605 59.3945 167.855 59.5273C168.105 59.6523 168.398 59.7148 168.734 59.7148C169.242 59.7148 169.684 59.6133 170.059 59.4102C170.434 59.207 170.723 58.957 170.926 58.6602C171.137 58.3633 171.246 58.082 171.254 57.8164L172.145 59.2461C172.02 59.5664 171.848 59.8984 171.629 60.2422C171.418 60.5859 171.148 60.9102 170.82 61.2148C170.492 61.5117 170.098 61.7578 169.637 61.9531C169.176 62.1406 168.629 62.2344 167.996 62.2344C167.191 62.2344 166.461 62.0742 165.805 61.7539C165.156 61.4258 164.641 60.9766 164.258 60.4062C163.883 59.8281 163.695 59.1719 163.695 58.4375C163.695 57.7734 163.82 57.1836 164.07 56.668C164.32 56.1523 164.688 55.7188 165.172 55.3672C165.664 55.0078 166.277 54.7383 167.012 54.5586C167.746 54.3711 168.598 54.2773 169.566 54.2773H171.523ZM180.641 44V62H177.254V44H180.641ZM186.805 43.9883V62H183.43V43.9883H186.805ZM194.797 49.3203L189.289 55.6016L186.336 58.5898L185.105 56.1523L187.449 53.1758L190.742 49.3203H194.797ZM191.293 62L187.543 56.1406L189.875 54.1016L195.184 62H191.293Z" fill="#888888"/>
<path d="M115.994 98.708V104.641H99.5806V98.708H115.994ZM102.151 86.0078V118H94.439V86.0078H102.151ZM121.18 86.0078V118H113.489V86.0078H121.18ZM124.805 106.354V105.893C124.805 104.15 125.054 102.546 125.552 101.081C126.05 99.6016 126.783 98.3198 127.75 97.2358C128.716 96.1519 129.91 95.3096 131.331 94.709C132.752 94.0938 134.393 93.7861 136.253 93.7861C138.128 93.7861 139.776 94.0938 141.197 94.709C142.632 95.3096 143.833 96.1519 144.8 97.2358C145.767 98.3198 146.5 99.6016 146.998 101.081C147.496 102.546 147.745 104.15 147.745 105.893V106.354C147.745 108.083 147.496 109.687 146.998 111.167C146.5 112.631 145.767 113.913 144.8 115.012C143.833 116.096 142.64 116.938 141.219 117.539C139.798 118.139 138.157 118.439 136.297 118.439C134.437 118.439 132.789 118.139 131.353 117.539C129.917 116.938 128.716 116.096 127.75 115.012C126.783 113.913 126.05 112.631 125.552 111.167C125.054 109.687 124.805 108.083 124.805 106.354ZM132.21 105.893V106.354C132.21 107.248 132.276 108.083 132.408 108.859C132.54 109.636 132.759 110.317 133.067 110.903C133.375 111.474 133.792 111.921 134.319 112.243C134.847 112.565 135.506 112.727 136.297 112.727C137.073 112.727 137.718 112.565 138.23 112.243C138.758 111.921 139.175 111.474 139.483 110.903C139.791 110.317 140.01 109.636 140.142 108.859C140.274 108.083 140.34 107.248 140.34 106.354V105.893C140.34 105.029 140.274 104.216 140.142 103.454C140.01 102.678 139.791 101.997 139.483 101.411C139.175 100.81 138.758 100.341 138.23 100.004C137.703 99.6675 137.044 99.499 136.253 99.499C135.477 99.499 134.825 99.6675 134.297 100.004C133.785 100.341 133.375 100.81 133.067 101.411C132.759 101.997 132.54 102.678 132.408 103.454C132.276 104.216 132.21 105.029 132.21 105.893ZM158.27 110.925L162.664 94.2256H167.3L165.652 102.597L161.302 118H157.588L158.27 110.925ZM156.534 94.2256L159.258 110.793L159.566 118H155.062L149.437 94.2256H156.534ZM171.211 110.441L173.958 94.2256H181.055L175.474 118H170.97L171.211 110.441ZM167.828 94.2256L172.266 110.881L172.947 118H169.19L164.927 102.641L163.345 94.2256H167.828ZM209.466 86.0078V118H201.753V86.0078H209.466ZM219.09 86.0078V91.9624H192.349V86.0078H219.09ZM216.475 106.354V105.893C216.475 104.15 216.724 102.546 217.222 101.081C217.72 99.6016 218.453 98.3198 219.419 97.2358C220.386 96.1519 221.58 95.3096 223.001 94.709C224.422 94.0938 226.062 93.7861 227.923 93.7861C229.798 93.7861 231.446 94.0938 232.867 94.709C234.302 95.3096 235.503 96.1519 236.47 97.2358C237.437 98.3198 238.169 99.6016 238.667 101.081C239.166 102.546 239.415 104.15 239.415 105.893V106.354C239.415 108.083 239.166 109.687 238.667 111.167C238.169 112.631 237.437 113.913 236.47 115.012C235.503 116.096 234.31 116.938 232.889 117.539C231.468 118.139 229.827 118.439 227.967 118.439C226.106 118.439 224.458 118.139 223.023 117.539C221.587 116.938 220.386 116.096 219.419 115.012C218.453 113.913 217.72 112.631 217.222 111.167C216.724 109.687 216.475 108.083 216.475 106.354ZM223.88 105.893V106.354C223.88 107.248 223.946 108.083 224.078 108.859C224.209 109.636 224.429 110.317 224.737 110.903C225.044 111.474 225.462 111.921 225.989 112.243C226.517 112.565 227.176 112.727 227.967 112.727C228.743 112.727 229.388 112.565 229.9 112.243C230.428 111.921 230.845 111.474 231.153 110.903C231.46 110.317 231.68 109.636 231.812 108.859C231.944 108.083 232.01 107.248 232.01 106.354V105.893C232.01 105.029 231.944 104.216 231.812 103.454C231.68 102.678 231.46 101.997 231.153 101.411C230.845 100.81 230.428 100.341 229.9 100.004C229.373 99.6675 228.714 99.499 227.923 99.499C227.146 99.499 226.495 99.6675 225.967 100.004C225.455 100.341 225.044 100.81 224.737 101.411C224.429 101.997 224.209 102.678 224.078 103.454C223.946 104.216 223.88 105.029 223.88 105.893ZM254.268 86.0078H266.858C269.319 86.0078 271.458 86.374 273.274 87.1064C275.091 87.8389 276.49 88.9229 277.471 90.3584C278.467 91.7939 278.965 93.5664 278.965 95.6758C278.965 97.5068 278.68 99.0376 278.108 100.268C277.537 101.499 276.739 102.517 275.713 103.322C274.703 104.113 273.523 104.765 272.176 105.278L269.649 106.706H259.08L259.036 100.751H266.858C267.84 100.751 268.653 100.576 269.297 100.224C269.942 99.8726 270.425 99.3745 270.748 98.73C271.084 98.0708 271.253 97.2871 271.253 96.3789C271.253 95.4561 271.084 94.665 270.748 94.0059C270.411 93.3467 269.913 92.8413 269.253 92.4897C268.609 92.1382 267.811 91.9624 266.858 91.9624H261.98V118H254.268V86.0078ZM271.78 118L264.705 103.85L272.879 103.806L280.042 117.67V118H271.78ZM297.159 112.221V94.2256H304.585V118H297.642L297.159 112.221ZM297.862 107.387L299.795 107.343C299.795 108.94 299.605 110.419 299.224 111.782C298.843 113.129 298.279 114.301 297.532 115.297C296.8 116.293 295.892 117.07 294.808 117.626C293.738 118.168 292.5 118.439 291.094 118.439C289.922 118.439 288.846 118.278 287.864 117.956C286.897 117.619 286.062 117.099 285.359 116.396C284.656 115.678 284.107 114.763 283.711 113.649C283.331 112.521 283.14 111.174 283.14 109.606V94.2256H290.545V109.65C290.545 110.178 290.611 110.632 290.743 111.013C290.875 111.394 291.065 111.716 291.314 111.979C291.563 112.229 291.871 112.419 292.237 112.551C292.618 112.668 293.05 112.727 293.533 112.727C294.646 112.727 295.518 112.492 296.148 112.023C296.778 111.555 297.217 110.917 297.466 110.112C297.73 109.306 297.862 108.398 297.862 107.387ZM315.945 99.3013V118H308.541V94.2256H315.484L315.945 99.3013ZM315.066 105.3L313.331 105.344C313.331 103.527 313.55 101.909 313.99 100.488C314.429 99.0522 315.052 97.8364 315.857 96.8403C316.663 95.8442 317.623 95.0898 318.736 94.5771C319.864 94.0498 321.116 93.7861 322.493 93.7861C323.592 93.7861 324.595 93.9473 325.503 94.2695C326.426 94.5918 327.217 95.1118 327.876 95.8296C328.55 96.5474 329.063 97.4995 329.415 98.686C329.781 99.8579 329.964 101.308 329.964 103.037V118H322.515V103.015C322.515 102.062 322.383 101.337 322.12 100.839C321.856 100.327 321.475 99.9751 320.977 99.7847C320.479 99.5942 319.871 99.499 319.153 99.499C318.392 99.499 317.747 99.6455 317.22 99.9385C316.692 100.231 316.268 100.642 315.945 101.169C315.638 101.682 315.411 102.29 315.264 102.993C315.132 103.696 315.066 104.465 315.066 105.3ZM345.85 107.871H339.544C339.544 106.582 339.632 105.446 339.808 104.465C339.998 103.469 340.32 102.575 340.774 101.784C341.229 100.993 341.844 100.261 342.62 99.5869C343.309 99.0156 343.902 98.4663 344.4 97.939C344.898 97.4116 345.279 96.877 345.542 96.335C345.806 95.793 345.938 95.2144 345.938 94.5991C345.938 93.8374 345.828 93.2148 345.608 92.7314C345.403 92.248 345.088 91.8892 344.664 91.6548C344.253 91.4058 343.733 91.2812 343.104 91.2812C342.591 91.2812 342.107 91.4058 341.653 91.6548C341.214 91.9038 340.855 92.292 340.577 92.8193C340.298 93.332 340.145 94.0132 340.115 94.8628H332.667C332.71 92.6802 333.194 90.9077 334.117 89.5454C335.054 88.1685 336.299 87.165 337.852 86.5352C339.419 85.8906 341.17 85.5684 343.104 85.5684C345.242 85.5684 347.081 85.8979 348.619 86.5571C350.157 87.2163 351.336 88.1978 352.156 89.5015C352.977 90.7905 353.387 92.3799 353.387 94.2695C353.387 95.5293 353.145 96.6279 352.662 97.5654C352.193 98.4883 351.556 99.3525 350.75 100.158C349.959 100.949 349.073 101.799 348.091 102.707C347.242 103.454 346.663 104.216 346.355 104.992C346.048 105.754 345.879 106.713 345.85 107.871ZM338.643 114.55C338.643 113.496 339.024 112.617 339.786 111.914C340.547 111.196 341.536 110.837 342.752 110.837C343.968 110.837 344.957 111.196 345.718 111.914C346.48 112.617 346.861 113.496 346.861 114.55C346.861 115.605 346.48 116.491 345.718 117.209C344.957 117.912 343.968 118.264 342.752 118.264C341.536 118.264 340.547 117.912 339.786 117.209C339.024 116.491 338.643 115.605 338.643 114.55Z" fill="#424241"/>
<path d="M1363 15C1363 6.71573 1356.28 0 1348 0H1134V167H1348C1356.28 167 1363 160.284 1363 152V15Z" fill="#BD4543"/>
<path d="M1260.77 81.3079C1263.96 81.3079 1267.09 82.2553 1269.74 84.0303C1272.4 85.8053 1274.47 88.3282 1275.69 91.2799C1276.92 94.2316 1277.24 97.4796 1276.61 100.613C1275.99 103.747 1274.45 106.625 1272.19 108.884C1269.93 111.143 1267.05 112.682 1263.92 113.305C1260.79 113.928 1257.54 113.608 1254.59 112.386C1251.64 111.163 1249.11 109.093 1247.34 106.436C1245.56 103.78 1244.62 100.657 1244.62 97.4617C1244.62 93.1774 1246.32 89.0686 1249.35 86.0392C1252.38 83.0098 1256.48 81.3079 1260.77 81.3079ZM1260.77 75.9233C1256.51 75.9233 1252.34 77.1865 1248.8 79.5532C1245.26 81.9198 1242.5 85.2837 1240.87 89.2193C1239.24 93.1549 1238.81 97.4856 1239.64 101.664C1240.48 105.842 1242.53 109.679 1245.54 112.692C1248.55 115.704 1252.39 117.755 1256.57 118.586C1260.74 119.417 1265.08 118.991 1269.01 117.361C1272.95 115.73 1276.31 112.97 1278.68 109.428C1281.04 105.886 1282.31 101.722 1282.31 97.4617C1282.31 91.7493 1280.04 86.271 1276 82.2317C1271.96 78.1925 1266.48 75.9233 1260.77 75.9233Z" fill="white"/>
<path d="M1274.23 49H1220.38C1218.96 49 1217.59 49.5673 1216.58 50.5771C1215.57 51.5869 1215 52.9565 1215 54.3846V108.231C1215 109.659 1215.57 111.028 1216.58 112.038C1217.59 113.048 1218.96 113.615 1220.38 113.615H1231.15V108.231H1220.38V70.5384H1279.62V54.3846C1279.62 52.9565 1279.05 51.5869 1278.04 50.5771C1277.03 49.5673 1275.66 49 1274.23 49ZM1220.38 65.1538V54.3846H1274.23V65.1538H1220.38Z" fill="white"/>
<path d="M1255.38 89.3849V105.539L1268.85 97.4618L1255.38 89.3849Z" fill="white"/>
</svg>
